# xmcd CD database file
#
# Track frame offsets:
#	150
#	36677
#	72366
#	125615
#	152687
#	188533
#
# Disc length: 3045 seconds
#
# Revision: 0
# Processed by: cddbd v1.4PL0 Copyright (c) Steve Scherf et al.
# Submitted via: CDex 1.50Beta5
#
DISCID=510be306
DTITLE=Art Farmer Quintet - Live at Jazzland
DYEAR=1998
DGENRE=Jazz
TTITLE0=Surrey with the Fringe on Top
TTITLE1=Melancholia
TTITLE2=Fairytale
TTITLE3=Stardust
TTITLE4=What am I here for
TTITLE5=Cherokee Sketches
EXTD=YEAR: 1998
EXTT0=
EXTT1=
EXTT2=
EXTT3=
EXTT4=
EXTT5=
PLAYORDER=
